<svg width="17" height="18" viewBox="0 0 17 18" fill="none" xmlns="http://www.w3.org/2000/svg">
<path d="M15.6032 16.6053C16.1558 16.0526 16.1558 15.1567 15.6032 14.604L10.0012 8.99987L15.6032 3.39571C16.1558 2.84308 16.1558 1.94709 15.6032 1.39445C15.0506 0.841822 14.1546 0.841822 13.602 1.39445L7.99995 6.99861L2.49654 1.39445C1.94391 0.841823 1.04791 0.841822 0.495279 1.39445C-0.0573546 1.94709 -0.0573539 2.84308 0.495279 3.39572L5.99868 8.99987L0.495279 14.604C-0.0573547 15.1567 -0.0573543 16.0526 0.495279 16.6053C1.04791 17.1579 1.94391 17.1579 2.49654 16.6053L7.99995 11.0011L13.602 16.6053C14.1546 17.1579 15.0506 17.1579 15.6032 16.6053Z" fill="white"/>
</svg>
