<svg width="17" height="18" viewBox="0 0 17 18" fill="none" xmlns="http://www.w3.org/2000/svg">
<path d="M15.6035 16.6054C16.1561 16.0528 16.1561 15.1568 15.6035 14.6041L10.0015 9L15.6035 3.39584C16.1561 2.8432 16.1561 1.94721 15.6035 1.39458C15.0508 0.841944 14.1548 0.841944 13.6022 1.39458L8.00019 6.99874L2.49678 1.39458C1.94415 0.841945 1.04816 0.841944 0.495523 1.39458C-0.0571105 1.94721 -0.0571097 2.84321 0.495523 3.39584L5.99893 8.99999L0.495523 14.6041C-0.0571105 15.1568 -0.0571102 16.0528 0.495523 16.6054C1.04816 17.158 1.94415 17.158 2.49678 16.6054L8.00019 11.0013L13.6022 16.6054C14.1548 17.158 15.0508 17.158 15.6035 16.6054Z" fill="#F20C90"/>
</svg>
