<svg width="28" height="28" viewBox="0 0 28 28" fill="none" xmlns="http://www.w3.org/2000/svg">
<path d="M14 0C6.22222 0 0 6.22222 0 14C0 16.8 0.933333 19.6 2.48889 21.9333L0.311111 25.6667C6.95388e-08 26.1333 6.95388e-08 26.7556 0.311111 27.2222C0.622222 27.6889 0.933333 28 1.55556 28H14C21.7778 28 28 21.7778 28 14C28 6.22222 21.7778 0 14 0ZM14 24.8889H4.35556L5.75556 22.5556C6.06667 21.9333 6.06667 21.3111 5.6 20.8444C4.04444 18.9778 3.11111 16.4889 3.11111 14C3.11111 7.93333 7.93333 3.11111 14 3.11111C20.0667 3.11111 24.8889 7.93333 24.8889 14C24.8889 20.0667 20.0667 24.8889 14 24.8889Z" fill="white"/>
<path d="M14.1556 6.6886H14C12.4445 6.6886 11.0445 7.46638 10.2667 8.71082C9.64449 9.4886 9.80005 10.4219 10.5778 10.8886C11.3556 11.3553 12.2889 11.1997 12.7556 10.4219C13.0667 9.95526 13.5334 9.79971 14 9.79971H14.1556C14.9334 9.79971 15.5556 10.4219 15.5556 11.1997C15.5556 11.8219 15.0889 12.4442 14.6223 12.5997L13.5334 12.9108C12.9112 13.0664 12.4445 13.6886 12.4445 14.3108V15.5553C12.4445 16.4886 13.0667 17.1108 14 17.1108C14.7778 17.1108 15.5556 16.4886 15.5556 15.7108C17.4223 15.0886 18.6667 13.3775 18.6667 11.3553C18.6667 8.86638 16.6445 6.6886 14.1556 6.6886Z" fill="white"/>
<path d="M14 21.7778C14.8591 21.7778 15.5556 21.0813 15.5556 20.2222C15.5556 19.3631 14.8591 18.6667 14 18.6667C13.1409 18.6667 12.4444 19.3631 12.4444 20.2222C12.4444 21.0813 13.1409 21.7778 14 21.7778Z" fill="white"/>
</svg>
