<svg width="29" height="28" viewBox="0 0 29 28" fill="none" xmlns="http://www.w3.org/2000/svg">
<path d="M25.7 6.475H22.641C22.795 6.034 22.9 5.565 22.9 5.075C22.9 2.758 21.017 0.875 18.7 0.875C17.237 0.875 15.949 1.624 15.2 2.758L14.5 3.71L13.8 2.758C13.051 1.624 11.763 0.875 10.3 0.875C7.983 0.875 6.1 2.758 6.1 5.075C6.1 5.565 6.198 6.034 6.359 6.475H3.3C1.753 6.475 0.514 7.728 0.514 9.275L0.5 24.675C0.5 26.222 1.753 27.475 3.3 27.475H25.7C27.247 27.475 28.5 26.222 28.5 24.675V9.275C28.5 7.728 27.247 6.475 25.7 6.475ZM18.7 3.675C19.47 3.675 20.1 4.305 20.1 5.075C20.1 5.845 19.47 6.475 18.7 6.475C17.93 6.475 17.3 5.845 17.3 5.075C17.3 4.305 17.93 3.675 18.7 3.675ZM10.3 3.675C11.07 3.675 11.7 4.305 11.7 5.075C11.7 5.845 11.07 6.475 10.3 6.475C9.53 6.475 8.9 5.845 8.9 5.075C8.9 4.305 9.53 3.675 10.3 3.675ZM25.7 24.675H3.3V21.875H25.7V24.675ZM25.7 17.675H3.3V9.275H10.412L7.5 13.244L9.775 14.875L13.1 10.346L14.5 8.442L15.9 10.346L19.225 14.875L21.5 13.244L18.588 9.275H25.7V17.675Z" fill="white"/>
</svg>
