<svg width="24" height="24" viewBox="0 0 24 24" fill="none" xmlns="http://www.w3.org/2000/svg">
<path fill-rule="evenodd" clip-rule="evenodd" d="M0 2.25C0 1.00736 1.00736 0 2.25 0H21.75C22.9926 0 24 1.00736 24 2.25C24 3.49264 22.9926 4.5 21.75 4.5H2.25C1.00736 4.5 0 3.49264 0 2.25Z" fill="black"/>
<path fill-rule="evenodd" clip-rule="evenodd" d="M0 12C0 10.7574 1.00736 9.75 2.25 9.75H21.75C22.9926 9.75 24 10.7574 24 12C24 13.2426 22.9926 14.25 21.75 14.25H2.25C1.00736 14.25 0 13.2426 0 12Z" fill="black"/>
<path fill-rule="evenodd" clip-rule="evenodd" d="M0 21.75C0 20.5074 1.00736 19.5 2.25 19.5H21.75C22.9926 19.5 24 20.5074 24 21.75C24 22.9926 22.9926 24 21.75 24H2.25C1.00736 24 0 22.9926 0 21.75Z" fill="black"/>
</svg>
