<svg width="18" height="18" viewBox="0 0 18 18" fill="none" xmlns="http://www.w3.org/2000/svg">
<rect y="3.8147e-06" width="18" height="18" rx="9" fill="#F20C90"/>
<path d="M13 9C13 8.60555 12.6802 8.28579 12.2858 8.28579H9.71421V5.71421C9.71421 5.31976 9.39445 5 9 5C8.60556 5 8.2858 5.31976 8.2858 5.71421V8.28579H5.71421C5.31976 8.28579 5 8.60555 5 9C5 9.39444 5.31976 9.71421 5.71421 9.71421H8.2858L8.2858 12.2858C8.2858 12.6802 8.60556 13 9 13C9.39445 13 9.71421 12.6802 9.71421 12.2858L9.71421 9.71421H12.2858C12.6802 9.71421 13 9.39444 13 9Z" fill="white"/>
</svg>
