<svg width="31" height="35" viewBox="0 0 31 35" fill="none" xmlns="http://www.w3.org/2000/svg">
<path fill-rule="evenodd" clip-rule="evenodd" d="M16.219 6.41379C15.9624 5.15409 14.8579 4.2069 13.5166 4.2069C11.9931 4.2069 10.758 5.4377 10.758 6.9748V16.7496C8.60056 14.7318 6.13758 13.2268 4.56886 14.7955C2.37603 16.9884 6.98124 21.2911 10.5823 27.8518C13.0772 32.3972 16.7023 34 20.1373 34C25.3173 34 29.5166 29.8007 29.5166 24.6207V18.0158C29.5166 16.4922 28.2921 15.257 26.758 15.257C26.137 15.257 25.5639 15.4604 25.1028 15.8053V15.7905C25.1028 14.2684 23.8784 13.0345 22.3442 13.0345C21.6443 13.0345 21.0053 13.2971 20.5189 13.7276C20.1316 12.6786 19.1249 11.931 17.9304 11.931C17.3094 11.931 16.7363 12.1355 16.2752 12.481V7.51724H24.0545L20.4683 11.1034L21.2959 11.931L26.2614 6.96552L21.2959 2L20.4683 2.82759L24.0545 6.41379H16.219ZM20.1359 32.8966C24.7073 32.8966 28.4132 28.9404 28.4132 24.6207C28.4132 24.6207 28.4132 27.1732 28.4132 24.6207V20.4818V18.0018C28.4132 17.0867 27.6785 16.3448 26.758 16.3448C25.8439 16.3448 25.1028 17.0854 25.1028 18.0018V18.5517H23.9994V15.8002C23.9994 14.8822 23.2647 14.1379 22.3442 14.1379C21.4301 14.1379 20.689 14.8789 20.689 15.8002V17.4483H19.5856V14.6968C19.5856 13.7787 18.8509 13.0345 17.9304 13.0345C17.0163 13.0345 16.2752 13.7755 16.2752 14.6968V18.5517H15.1718V6.9713C15.1718 6.05398 14.4371 5.31034 13.5166 5.31034C12.6025 5.31034 11.8614 6.04649 11.8614 6.9713V19.4345C9.59009 17.0064 6.59978 14.3356 5.37429 15.5677C4.17466 16.7738 7.26597 20.0973 11.5827 27.3607C13.5276 30.6333 15.9886 32.896 20.1359 32.8966Z" fill="black" stroke="black" stroke-width="1.5"/>
<path d="M7 2L2 7L7 12" stroke="black" stroke-width="2.5"/>
<path d="M10.5 7H2.5" stroke="black" stroke-width="2.5"/>
</svg>
