<svg width="31" height="34" viewBox="0 0 31 34" fill="none" xmlns="http://www.w3.org/2000/svg">
<path fill-rule="evenodd" clip-rule="evenodd" d="M16.219 5.41379C15.9624 4.15409 14.8579 3.2069 13.5166 3.2069C11.9931 3.2069 10.758 4.4377 10.758 5.9748V15.7496C8.60056 13.7318 6.13758 12.2268 4.56886 13.7955C2.37603 15.9884 6.98124 20.2911 10.5823 26.8518C13.0772 31.3972 16.7023 33 20.1373 33C25.3173 33 29.5166 28.8007 29.5166 23.6207V17.0158C29.5166 15.4922 28.2921 14.257 26.758 14.257C26.137 14.257 25.5639 14.4604 25.1028 14.8053V14.7905C25.1028 13.2684 23.8784 12.0345 22.3442 12.0345C21.6443 12.0345 21.0053 12.2971 20.5189 12.7276C20.1316 11.6786 19.1249 10.931 17.9304 10.931C17.3094 10.931 16.7363 11.1355 16.2752 11.481V6.51724H24.0545L20.4683 10.1034L21.2959 10.931L26.2614 5.96552L21.2959 1L20.4683 1.82759L24.0545 5.41379H16.219ZM20.1359 31.8966C24.7073 31.8966 28.4132 27.9404 28.4132 23.6207C28.4132 23.6207 28.4132 26.1732 28.4132 23.6207V19.4818V17.0018C28.4132 16.0867 27.6785 15.3448 26.758 15.3448C25.8439 15.3448 25.1028 16.0854 25.1028 17.0018V17.5517H23.9994V14.8002C23.9994 13.8822 23.2647 13.1379 22.3442 13.1379C21.4301 13.1379 20.689 13.8789 20.689 14.8002V16.4483H19.5856V13.6968C19.5856 12.7787 18.8509 12.0345 17.9304 12.0345C17.0163 12.0345 16.2752 12.7755 16.2752 13.6968V17.5517H15.1718V5.9713C15.1718 5.05398 14.4371 4.31034 13.5166 4.31034C12.6025 4.31034 11.8614 5.04649 11.8614 5.9713V18.4345C9.59009 16.0064 6.59978 13.3356 5.37429 14.5677C4.17466 15.7738 7.26597 19.0973 11.5827 26.3607C13.5276 29.6333 15.9886 31.896 20.1359 31.8966Z" fill="white" stroke="white"/>
<path d="M7 1L2 6L7 11" stroke="white" stroke-width="2"/>
<path d="M10.5 6H2.5" stroke="white" stroke-width="2"/>
</svg>
