<svg width="29" height="28" viewBox="0 0 29 28" fill="none" xmlns="http://www.w3.org/2000/svg">
<g clip-path="url(#clip0_371_3047)">
<path d="M20.7214 14.8838C21.9316 13.6557 22.7518 12.0973 23.0789 10.4044C23.406 8.71146 23.2254 6.95965 22.5598 5.36911C21.8941 3.77856 20.7732 2.42028 19.3378 1.46498C17.9024 0.509682 16.2167 0 14.4925 0C12.7683 0 11.0825 0.509682 9.64714 1.46498C8.21176 2.42028 7.0908 3.77856 6.42516 5.36911C5.75951 6.95965 5.57889 8.71146 5.90599 10.4044C6.23309 12.0973 7.05332 13.6557 8.26358 14.8838C5.97908 15.7818 4.01729 17.3459 2.63288 19.3729C1.24846 21.3999 0.505347 23.7963 0.5 26.2509C0.49987 26.4807 0.545022 26.7082 0.632874 26.9204C0.720726 27.1327 0.849556 27.3256 1.012 27.488C1.17444 27.6504 1.3673 27.7793 1.57957 27.8671C1.79183 27.955 2.01933 28.0001 2.24906 28H26.7359C26.9656 28.0001 27.1931 27.955 27.4054 27.8671C27.6176 27.7793 27.8105 27.6504 27.9729 27.488C28.1354 27.3256 28.2642 27.1327 28.3521 26.9204C28.4399 26.7082 28.4851 26.4807 28.4849 26.2509C28.4796 23.7963 27.7365 21.3999 26.3521 19.3729C24.9676 17.3459 23.0059 15.7818 20.7214 14.8838ZM14.4925 3.51318C15.5303 3.51318 16.5447 3.82092 17.4076 4.39749C18.2705 4.97406 18.9431 5.79355 19.3402 6.75235C19.7374 7.71114 19.8413 8.76618 19.6388 9.78403C19.4364 10.8019 18.9366 11.7368 18.2028 12.4707C17.469 13.2045 16.534 13.7042 15.5161 13.9067C14.4983 14.1092 13.4433 14.0053 12.4845 13.6081C11.5257 13.211 10.7062 12.5384 10.1296 11.6755C9.55303 10.8126 9.24529 9.79815 9.24529 8.76036C9.24684 7.36919 9.80016 6.03545 10.7839 5.05175C11.7676 4.06805 13.1013 3.51472 14.4925 3.51318ZM4.17235 24.5019C4.57875 22.528 5.65304 20.7545 7.21424 19.4802C8.77544 18.2058 10.7281 17.5085 12.7434 17.5056H16.2415C18.2568 17.5085 20.2095 18.2058 21.7707 19.4802C23.3319 20.7545 24.4062 22.528 24.8126 24.5019H4.17235Z" fill="white"/>
</g>
<defs>
<clipPath id="clip0_371_3047">
<rect width="28" height="28" fill="white" transform="translate(0.5)"/>
</clipPath>
</defs>
</svg>
