<svg width="222" height="40" viewBox="0 0 222 40" fill="none" xmlns="http://www.w3.org/2000/svg">
<path fill-rule="evenodd" clip-rule="evenodd" d="M89.5722 22.1084C89.434 22.3159 89.5029 22.5582 89.5029 22.7657V32.7991C89.5029 33.7333 89.3989 34.6329 89.1224 35.5324C88.2922 38.404 85.8704 40.1338 82.8602 39.9262C79.1584 39.684 77.0477 37.4351 76.8055 33.5258C76.7708 33.1453 76.7708 32.7302 76.7708 32.3493V6.53947C76.7708 3.8408 77.7739 1.73057 80.3344 0.692348C82.9637 -0.380099 85.4549 0.000340145 87.5997 1.93768C88.7762 2.97546 89.6064 4.35946 90.5406 5.6048C93.4122 9.51414 96.4567 13.3199 99.1553 17.3679C99.4322 17.783 99.6744 18.1982 100.09 18.5791V7.19636C100.09 5.7088 100.332 4.29013 101.093 3.01013C102.477 0.657679 104.656 -0.103654 107.216 0.173236C110.226 0.450125 112.233 2.49146 112.648 5.53591C112.752 6.22791 112.786 6.91992 112.786 7.61192V33.4906C112.786 36.1546 111.852 38.2649 109.361 39.372C106.697 40.5138 104.137 40.0987 101.957 38.1267C100.607 36.9155 99.6042 35.3586 98.4624 33.9058C95.4527 30.0653 92.2349 26.3635 89.6749 22.1773C89.6749 22.1426 89.6402 22.1426 89.5709 22.108L89.5722 22.1084ZM182.881 22.1777V22.9044C182.881 26.5373 182.847 30.1351 182.812 33.768C182.812 34.8058 182.5 35.7747 182.051 36.6742C180.978 38.8538 178.695 40.0995 176.169 39.8915C172.571 39.6147 170.426 37.3658 170.184 33.6986L170.149 33.076C170.149 24.0115 170.115 14.947 170.149 5.88258C170.149 3.56435 171.256 1.79991 173.332 0.796793C175.685 -0.310321 177.968 -0.137433 180.183 1.28124C180.84 1.69635 181.394 2.25012 181.844 2.83812C185.338 7.54347 188.936 12.1448 192.257 16.9884C192.638 17.5422 192.984 18.0955 193.434 18.8222V6.98969C193.434 5.25991 193.814 3.59901 194.956 2.21546C196.651 0.174118 198.935 -0.171657 201.356 0.278122C203.64 0.7279 205.058 2.25013 205.716 4.42969C206.027 5.46747 206.096 6.50569 206.096 7.57814V33.5262C206.096 36.1555 205.127 38.2662 202.671 39.3387C200.111 40.4458 197.654 40.1 195.474 38.3009C195.128 38.024 194.782 37.6782 194.505 37.332C191.046 32.8689 187.344 28.5786 184.126 23.9426C183.711 23.3546 183.331 22.7662 182.95 22.1782C182.984 22.1435 182.95 22.1435 182.88 22.1782L182.881 22.1777ZM153.162 19.9635C153.162 15.431 153.127 10.9337 153.162 6.40124C153.197 3.7719 154.304 1.73057 156.76 0.692789C159.286 -0.379658 161.743 -0.102771 163.853 1.76523C165.133 2.87235 165.79 4.39457 165.79 6.05547C165.825 15.3622 165.859 24.6342 165.79 33.9409C165.755 37.4351 162.884 40.0302 159.424 39.9262C155.791 39.8222 153.197 37.2969 153.162 33.7333C153.127 29.132 153.162 24.5648 153.162 19.9635ZM72.481 16.3653C72.4464 18.8564 72.5851 21.9702 72.4117 25.0493C71.9966 32.6955 66.2881 38.7498 58.6766 39.7187C55.2859 40.1338 51.9992 39.9609 48.8161 38.6462C43.1423 36.328 40.0285 32.0035 39.1636 26.0182C39.0596 25.2568 39.0254 24.4613 38.9908 23.6657C38.9908 17.9573 38.9561 12.283 38.9908 6.57458C39.0254 2.7688 41.6894 0.0701214 45.3565 0.104788C49.0583 0.139455 51.6877 2.83813 51.6877 6.7128V22.8351C51.6877 24.6342 52.3103 26.0871 53.9712 26.9177C56.5659 28.2324 59.4721 26.3986 59.749 23.3888C59.7837 23.0084 59.7837 22.5933 59.7837 22.2124V6.50525C59.7837 3.07991 62.1019 0.485235 65.4575 0.139456C68.7788 -0.206322 71.6157 1.83457 72.3077 5.12169C72.4117 5.6408 72.4459 6.15947 72.4459 6.71325C72.4806 9.72303 72.4806 12.7333 72.4806 16.3657L72.481 16.3653ZM129.843 12.0408C132.127 9.09992 134.479 6.29769 136.694 3.39146C137.974 1.73057 139.496 0.554565 141.641 0.312342C145.378 -0.0681033 148.976 3.39146 148.699 7.12792C148.561 8.8577 147.869 10.311 146.796 11.6257C144.617 14.2204 142.403 16.7808 140.188 19.3408C139.877 19.7213 139.877 19.9288 140.188 20.2751C142.575 22.9044 144.894 25.6031 147.246 28.2324C148.526 29.6853 149.253 31.3115 149.183 33.2489C149.045 37.4004 144.859 40.6182 141.019 39.4764C139.704 39.096 138.631 38.3 137.767 37.2275C135.275 34.1831 132.715 31.1729 130.294 28.0591C130.19 27.9209 130.086 27.7822 129.948 27.6093C129.706 27.7475 129.81 27.9551 129.81 28.0937C129.81 29.9275 129.844 31.7266 129.775 33.56C129.671 37.2618 127.042 39.8569 123.444 39.8222C119.811 39.8222 117.113 37.2275 117.113 33.56C117.078 24.4608 117.078 15.327 117.113 6.22791C117.147 2.56079 119.881 -0.0343236 123.478 0.00034319C127.077 0.0350099 129.671 2.56035 129.775 6.22791C129.879 8.23458 129.845 10.1373 129.845 12.0404L129.843 12.0408ZM12.2471 0.900343C14.496 0.935009 17.056 0.727455 19.5818 1.2119C26.6049 2.52657 32.0023 6.05547 34.4587 12.9404C36.9845 20.0328 36.1539 26.7795 31.1374 32.6609C28.0583 36.2938 23.9067 38.1964 19.2707 38.8538C14.9805 39.4764 10.656 39.0613 6.36579 39.1307C6.15824 39.1307 5.95068 39.0613 5.74312 39.0267C2.35245 38.4387 0 35.6706 0 32.2458V7.81991C0 3.97946 2.94089 0.969676 6.81557 0.900343C8.51068 0.865676 10.2409 0.900343 12.2471 0.900343ZM12.6969 20.0328V26.3297C12.6969 26.6413 12.6622 26.9177 13.1467 26.9177C14.496 26.8831 15.8107 26.9871 17.16 26.8137C20.6889 26.3986 23.0414 23.7346 23.0761 20.0671C23.1107 16.4688 20.7578 13.7013 17.2289 13.2515C15.9143 13.0786 14.5996 13.2168 13.2849 13.1475C12.8005 13.1128 12.6622 13.2857 12.6622 13.7702C12.6969 15.8462 12.6969 17.9564 12.6969 20.0324V20.0328Z" fill="#FF6D0D"/>
<path fill-rule="evenodd" clip-rule="evenodd" d="M209.971 9.27282C209.936 7.71593 209.971 6.1937 210.316 4.67147C211.008 1.48835 213.672 -0.31076 216.959 0.208352C220.108 0.692798 222.114 3.28747 221.803 6.47059C221.526 9.09993 220.8 11.6257 219.761 14.0475C219.139 15.4662 218.204 16.6075 216.682 17.1266C214.191 17.9568 211.596 16.7462 210.662 14.255C210.04 12.6635 210.005 10.9684 209.97 9.27282H209.971Z" fill="#F20C90"/>
</svg>
